<svg xmlns="http://www.w3.org/2000/svg" viewBox="0 0 150 150" width="150" height="150">
  <linearGradient id="_0fnrzz0" x1="84.67" x2="134.8" y1="77.56" y2="77.56" gradientUnits="userSpaceOnUse"><stop stop-color="#2788E5" offset="0"/><stop stop-color="#3A6CEC" offset="1"/></linearGradient>
  <linearGradient id="_0fnrzz1" x1="14.08" x2="136.1" y1="78.09" y2="78.09" gradientUnits="userSpaceOnUse"><stop stop-color="#21DDED" offset="0"/><stop stop-color="#3B6CED" offset="1"/></linearGradient>
  <linearGradient id="_0fnrzz2" x1="61.41" x2="136.1" y1="116.9" y2="116.9" gradientUnits="userSpaceOnUse"><stop stop-color="#274AB3" offset="0"/><stop stop-color="#3A6CEC" offset="1"/></linearGradient>
  <path d="m111.6 25.2-27.4 5.8-0.5 0.4c0.6 0.6 13.7 12.4 13.8 12.5l-13.9 14.4c1-0.2 12.1 13 12.6 13.5h0.2l14.6-14.4 15.3 14.9 8.5-52.3-23.2 5.2z" fill="url(#_0fnrzz0)" />
  <path d="m120.7 86.4c-7.8 7.8-21.6 21.1-28.8 28.7-5.3 5.3-15.8 6.9-22.6 1.7-1.1-0.8-5.3-4.8-6.7-6.6l-0.1-0.2c0.1 0-0.1 0.2 0 0 2-5.5 4.6-9.9 12.8-18.2 7.1 1.6 13.2-0.4 17.2-4.8 2.9-3.2 4.9-8.4 4.1-15v-0.2l-13-13.4c-4.9-1.3-10.2-0.1-14 2.7-1.7 1.3-4.1 3.7-5.2 6.4-1.6 3.5-2.1 6.6-1.5 11.1l-16 15.4-7.9-7.5c-5.5-6.1-6.2-17.5 0.5-23.5l27.5-27.2c3.9-3.8 9.1-5.8 15.4-5.1 1.7 0.3 2.8 0.5 3 0.8l20.1-4.6 6-1.7-5.3-5.5-1.1-1c-7.4-6.1-15.3-9.1-25.1-9.1-9.9 0-19.4 3.2-27.6 10.9l-26.6 25.4c-5.8 5.8-11.7 14.9-11.7 29.2 0 9.6 3.7 19.7 10.9 27.6 3.3 3.2 19.2 19.3 25.6 25.3 7.8 7.5 16.7 11.9 29.2 12.1 12.2 0.2 20.9-3.7 28.5-10.5l27.8-28.3-15.4-14.9zm-46.2-17.3c2.2-1.6 4.4-2.5 7.7-1.7 2.4 0.6 5.3 3.1 5.5 6.4 0.5 4-1.5 7.3-4 8.6-2.2 1-4.7 1.4-7.2 0.5-2.9-1.1-5.5-4.5-5.1-8.4 0.4-2.5 1.3-4.3 3.1-5.4z" fill="url(#_0fnrzz1)" />
  <path d="m62.5 110c-3.6 9.1 1.8 25.4 20.2 28.6 3.7 0.5 9.9-0.2 13.9-1.5 5.3-2.2 9.3-5.2 11.9-7.7l27.6-28-15.4-15-28.6 28.6c-6.4 6-18.3 6.9-24.6 0.9l-5-4.9v-1z" fill="url(#_0fnrzz2)" />
</svg>
